<?xml version="1.0" encoding="utf-8"?>
<!-- Generator: Adobe Illustrator 16.0.0, SVG Export Plug-In . SVG Version: 6.00 Build 0)  -->
<!DOCTYPE svg PUBLIC "-//W3C//DTD SVG 1.1//EN" "http://www.w3.org/Graphics/SVG/1.1/DTD/svg11.dtd">
<svg version="1.1" id="Layer_1" xmlns="http://www.w3.org/2000/svg" xmlns:xlink="http://www.w3.org/1999/xlink" x="0px" y="0px"
	 width="391.203px" height="215.477px" viewBox="0 0 391.203 215.477" enable-background="new 0 0 391.203 215.477"
	 xml:space="preserve">
<g>
	<g>
		<path fill="#0040E4" d="M32.931,210.185c-1.651,0.861-5.313,2.01-9.979,2.01c-10.481,0-17.302-7.107-17.302-17.732
			c0-10.697,7.322-18.451,18.666-18.451c3.733,0,7.035,0.934,8.759,1.795l-1.437,4.882c-1.507-0.861-3.876-1.651-7.322-1.651
			c-7.969,0-12.276,5.888-12.276,13.139c0,8.04,5.169,12.994,12.061,12.994c3.59,0,5.959-0.934,7.754-1.723L32.931,210.185z"/>
		<path fill="#0040E4" d="M67.822,193.815c0,12.851-8.902,18.451-17.302,18.451c-9.405,0-16.656-6.893-16.656-17.877
			c0-11.63,7.61-18.45,17.23-18.45C61.074,175.939,67.822,183.19,67.822,193.815z M40.254,194.175
			c0,7.609,4.38,13.354,10.554,13.354c6.03,0,10.554-5.672,10.554-13.497c0-5.888-2.943-13.354-10.41-13.354
			S40.254,187.569,40.254,194.175z"/>
		<path fill="#0040E4" d="M72.273,186.134c0-3.59-0.071-6.533-0.287-9.405h5.601l0.358,5.744h0.144
			c1.724-3.303,5.743-6.533,11.487-6.533c4.81,0,12.276,2.871,12.276,14.789v20.748h-6.318v-20.03c0-5.6-2.082-10.267-8.04-10.267
			c-4.164,0-7.395,2.944-8.472,6.462c-0.287,0.789-0.431,1.866-0.431,2.943v20.892h-6.318V186.134z"/>
		<path fill="#0040E4" d="M108.602,186.134c0-3.59-0.072-6.533-0.287-9.405h5.6l0.359,5.744h0.144
			c1.723-3.303,5.743-6.533,11.486-6.533c4.811,0,12.276,2.871,12.276,14.789v20.748h-6.317v-20.03c0-5.6-2.082-10.267-8.041-10.267
			c-4.164,0-7.395,2.944-8.472,6.462c-0.287,0.789-0.431,1.866-0.431,2.943v20.892h-6.317V186.134z"/>
		<path fill="#0040E4" d="M148.446,195.251c0.144,8.544,5.6,12.062,11.918,12.062c4.522,0,7.251-0.79,9.62-1.795l1.077,4.523
			c-2.226,1.005-6.031,2.153-11.559,2.153c-10.697,0-17.087-7.035-17.087-17.518c0-10.481,6.174-18.737,16.297-18.737
			c11.343,0,14.358,9.979,14.358,16.368c0,1.293-0.144,2.298-0.216,2.943H148.446z M166.969,190.729
			c0.072-4.021-1.651-10.267-8.759-10.267c-6.39,0-9.189,5.888-9.691,10.267H166.969z"/>
		<path fill="#0040E4" d="M202.147,210.185c-1.651,0.861-5.313,2.01-9.979,2.01c-10.481,0-17.302-7.107-17.302-17.732
			c0-10.697,7.322-18.451,18.666-18.451c3.733,0,7.035,0.934,8.759,1.795l-1.437,4.882c-1.507-0.861-3.876-1.651-7.322-1.651
			c-7.969,0-12.276,5.888-12.276,13.139c0,8.04,5.169,12.994,12.061,12.994c3.59,0,5.959-0.934,7.754-1.723L202.147,210.185z"/>
		<path fill="#0040E4" d="M214.567,166.75v9.979h9.046v4.811h-9.046v18.738c0,4.307,1.22,6.748,4.738,6.748
			c1.65,0,2.871-0.216,3.661-0.431l0.287,4.738c-1.221,0.503-3.159,0.861-5.6,0.861c-2.943,0-5.313-0.934-6.82-2.656
			c-1.795-1.866-2.441-4.954-2.441-9.046v-18.953h-5.384v-4.811h5.384v-8.327L214.567,166.75z"/>
		<path fill="#FFFFFF" d="M237.638,166.719h-15.05v-8.073h39.897v8.073h-15.206v44.758h-9.642V166.719z"/>
		<path fill="#FFFFFF" d="M274.477,158.646v21.164h22.339v-21.164h9.642v52.831h-9.642v-23.28h-22.339v23.28h-9.642v-52.831H274.477
			z"/>
		<path fill="#FFFFFF" d="M324.247,196.505l-4.547,14.972h-9.954l16.931-52.831h12.307l17.166,52.831h-10.347l-4.781-14.972H324.247
			z M339.375,189.216l-4.154-13.013c-1.02-3.213-1.881-6.819-2.665-9.876h-0.157c-0.783,3.057-1.567,6.741-2.508,9.876
			l-4.076,13.013H339.375z"/>
		<path fill="#FFFFFF" d="M363.436,166.719h-15.05v-8.073h39.897v8.073h-15.206v44.758h-9.642V166.719z"/>
	</g>
	<path fill-rule="evenodd" clip-rule="evenodd" fill="#0040E4" d="M156.906,14.625c-23.401,15.978-35.331,45.531-27.582,74.452
		c9.812,36.615,47.445,58.342,84.061,48.532c29.918-8.017,49.893-34.606,50.85-64.037c-4.141,24.152-21.873,44.903-47.1,51.662
		c-34.556,9.259-70.073-11.248-79.332-45.802C131.299,55.159,139.481,30.412,156.906,14.625L156.906,14.625z"/>
	<path fill-rule="evenodd" clip-rule="evenodd" fill="#FFFFFF" d="M233.613,109.314c19.744-13.482,29.813-38.419,23.273-62.824
		c-8.279-30.896-40.037-49.231-70.933-40.952c-25.245,6.764-42.101,29.201-42.906,54.036c3.493-20.382,18.456-37.892,39.741-43.594
		c29.16-7.813,59.131,9.49,66.943,38.649C255.221,75.11,248.316,95.993,233.613,109.314L233.613,109.314z"/>
	<polygon fill="#1C61F9" points="187.153,56.165 152.674,56.165 197.809,70.831 	"/>
	<polygon fill="#FFDB31" points="197.809,70.831 197.809,70.831 197.809,70.831 	"/>
	<polygon fill="#0040E4" points="197.809,70.831 197.809,70.831 225.703,109.224 215.049,76.431 	"/>
	<polygon fill="#0040E4" points="169.913,109.224 197.809,88.956 197.809,70.831 	"/>
	<polygon fill="#0040E4" points="242.943,56.165 208.463,56.165 197.809,70.831 	"/>
	<polygon fill="#FFDB31" points="197.809,70.831 197.809,70.831 197.809,70.831 	"/>
	<polygon fill="#1C61F9" points="197.809,88.956 225.703,109.224 197.809,70.831 	"/>
	<polygon fill="#1C61F9" points="197.809,70.831 180.569,76.431 169.913,109.224 197.809,70.831 	"/>
	<polygon fill="#0040E4" points="187.153,56.165 197.809,70.831 197.809,23.374 	"/>
	<polygon fill="#1C61F9" points="197.809,23.374 197.809,70.831 208.463,56.165 	"/>
	<polygon fill="#0040E4" points="197.809,70.831 152.674,56.165 180.569,76.431 197.809,70.831 	"/>
	<polygon fill="#1C61F9" points="197.809,70.831 215.049,76.431 242.943,56.165 197.809,70.831 	"/>
	<polygon fill="#FFDB31" points="197.809,70.831 197.809,70.831 197.809,70.831 	"/>
	<polygon fill="#FFDB31" points="197.809,70.831 197.809,70.831 197.809,70.831 	"/>
</g>
</svg>
